<?xml version="1.0" encoding="utf-8"?>
<!-- Generator: Adobe Illustrator 23.0.5, SVG Export Plug-In . SVG Version: 6.00 Build 0)  -->
<svg version="1.1" id="Layer_1" xmlns="http://www.w3.org/2000/svg" xmlns:xlink="http://www.w3.org/1999/xlink" x="0px" y="0px"
	 viewBox="0 0 305 170" style="enable-background:new 0 0 305 170;" xml:space="preserve">
<style type="text/css">
	.st0{fill:#E7F4F1;}
</style>
<g>
	<path class="st0" d="M106.44,40.5c-7.03,0.3-14.17,0.04-21.08,0.99c-24.13,3.32-41.77,21.76-41.92,43.25
		c-0.15,21.35,17.15,39.94,41.07,43.6c6.07,0.93,12.38,0.75,18.58,0.84c6.84,0.11,13.69-0.07,20.54-0.09
		c4.23-0.01,5.97,1.53,6.03,5.28c0,0.09,0,0.18,0,0.27c0.1,8.83,0.1,8.85-9.28,12.05c-7.34,2.5-11.8,7.14-13.57,13.8
		c-1,3.75-1.98,4.47-6.36,4.49c-4.36,0.02-8.71,0.03-13.07,0.01c-3.83-0.02-5.04-0.94-5.91-4.31c-1.72-6.67-6.15-11.34-13.43-13.93
		c-2.21-0.79-4.38-1.65-6.61-2.39c-6.77-2.23-13.24-1.6-19.33,1.78c-3.68,2.04-5.38,1.93-8.44-0.73c-3.08-2.69-6.18-5.36-9.23-8.08
		c-2.5-2.23-2.66-3.91-0.68-6.52c4.5-5.92,4.93-12.13,1.77-18.6c-0.77-1.58-1.54-3.16-2.3-4.75c-2.84-5.92-7.8-9.69-14.95-11.21
		c-5.24-1.12-5.77-1.7-5.78-6.5c-0.01-3.62,0.02-7.25,0-10.87c-0.01-2.75,1.37-4.35,4.59-4.9c8.07-1.38,13.69-5.48,16.47-12.24
		c1.56-3.79,3.09-7.67,3.83-11.62c0.72-3.85-0.99-7.48-3.47-10.75c-2.12-2.79-2.02-4.44,0.54-6.74c3.18-2.86,6.41-5.68,9.69-8.45
		c2.68-2.26,4.53-2.32,7.73-0.49c5.32,3.04,11.15,4.13,17.22,2.5c4.33-1.16,8.6-2.71,12.56-4.62c5.45-2.63,8.53-6.98,9.82-12.31
		c0.79-3.29,2.12-4.24,5.96-4.26c4.56-0.03,9.13,0.02,13.69,0c3.16-0.02,4.94,1.18,5.58,4c1.64,7.25,6.45,12.18,14.54,14.6
		c1.47,0.44,2.88,1.03,4.29,1.59c2.71,1.08,4.17,2.88,4.13,5.55c-0.03,1.72,0.02,3.44,0,5.16c-0.05,3.34-1.88,4.93-5.79,4.96
		c-5.81,0.03-11.62,0.01-17.43,0.01C106.45,40.75,106.44,40.62,106.44,40.5z"/>
	<g>
		<path class="st0" d="M95.52,123.18h-6.33c-2.27,0-4.45-0.39-6.56-1.18c-2.11-0.78-3.93-1.88-5.45-3.27
			c-1.52-1.4-2.6-3.02-3.22-4.86c-0.63-1.84-0.55-3.82,0.23-5.93l16.4-46.85H70.68l3.4-9.82h44.99c2.11,0,4.24,0.39,6.39,1.18
			c2.15,0.78,3.98,1.88,5.51,3.27c1.52,1.4,2.62,3.02,3.28,4.86s0.61,3.82-0.17,5.93l-2.58,7.47h-11.25l1.64-4.7
			c0.23-0.68,0.27-1.5,0.12-2.46c-0.16-0.96-0.59-1.86-1.29-2.71c-0.7-0.85-1.72-1.57-3.04-2.15c-1.33-0.58-2.97-0.87-4.92-0.87
			h-10.9l-15.47,44.09c-0.23,0.75-0.27,1.59-0.12,2.51c0.16,0.92,0.59,1.81,1.29,2.66c0.7,0.85,1.7,1.57,2.99,2.15
			c1.29,0.58,2.95,0.87,4.98,0.87h3.4L95.52,123.18z"/>
		<path class="st0" d="M198.58,52.44c2.15,0.78,3.98,1.88,5.51,3.27c1.52,1.4,2.62,3.02,3.28,4.86c0.66,1.84,0.61,3.82-0.18,5.93
			l-5.86,16.98c-0.78,2.11-2.15,4.09-4.1,5.93c-1.95,1.84-4.18,3.46-6.68,4.86c-2.5,1.4-5.1,2.49-7.79,3.27
			c-2.69,0.78-5.1,1.18-7.2,1.18h-24.14l3.4-9.82h21.21c1.95,0,3.79-0.29,5.51-0.87s3.24-1.3,4.57-2.15
			c1.33-0.85,2.42-1.74,3.28-2.66c0.86-0.92,1.41-1.76,1.64-2.51L195,69.27c0.24-0.68,0.27-1.5,0.12-2.46
			c-0.16-0.96-0.59-1.86-1.29-2.71c-0.7-0.85-1.72-1.57-3.05-2.15c-1.33-0.58-2.97-0.87-4.92-0.87h-16.17
			c-2.03,0-3.89,0.29-5.56,0.87c-1.68,0.58-3.18,1.3-4.51,2.15c-1.33,0.85-2.42,1.76-3.28,2.71c-0.86,0.95-1.41,1.77-1.64,2.46
			l-18.86,53.91h-11.25l19.8-56.67c0.78-2.11,2.15-4.09,4.1-5.93s4.16-3.46,6.62-4.86c2.46-1.4,5.02-2.49,7.68-3.27
			c2.66-0.78,5.12-1.18,7.38-1.18h22.03C194.3,51.26,196.43,51.65,198.58,52.44z"/>
		<path class="st0" d="M208.95,123.18H197.7l25.19-71.92h11.25L208.95,123.18z"/>
		<path class="st0" d="M293.25,52.44c2.15,0.78,3.98,1.88,5.51,3.27c1.52,1.4,2.62,3.02,3.28,4.86c0.66,1.84,0.61,3.82-0.17,5.93
			l-5.86,16.98c-0.62,1.64-1.6,3.21-2.93,4.71c-1.33,1.5-2.91,2.88-4.75,4.14c-1.84,1.26-3.79,2.37-5.86,3.32
			c-2.07,0.96-4.08,1.67-6.03,2.15c0.63,2.8,1.23,5.49,1.82,8.08c0.59,2.59,1.11,4.98,1.58,7.16c0.47,2.18,0.9,4.14,1.29,5.88
			c0.39,1.74,0.7,3.15,0.94,4.25h-12.3l-5.62-24.45h-18.04l3.4-9.82h21.21c1.95,0,3.79-0.29,5.51-0.87c1.72-0.58,3.24-1.3,4.57-2.15
			c1.33-0.85,2.42-1.74,3.28-2.66c0.86-0.92,1.41-1.76,1.64-2.51l3.99-11.46c0.23-0.68,0.27-1.5,0.12-2.46
			c-0.16-0.96-0.59-1.86-1.29-2.71c-0.7-0.85-1.72-1.57-3.04-2.15c-1.33-0.58-2.97-0.87-4.92-0.87h-16.17
			c-2.03,0-3.89,0.29-5.57,0.87c-1.68,0.58-3.18,1.3-4.51,2.15c-1.33,0.85-2.42,1.76-3.28,2.71c-0.86,0.95-1.41,1.77-1.64,2.46
			l-18.87,53.91h-11.25l19.8-56.67c0.78-2.11,2.15-4.09,4.1-5.93c1.95-1.84,4.16-3.46,6.62-4.86c2.46-1.4,5.02-2.49,7.68-3.27
			c2.66-0.78,5.12-1.18,7.38-1.18h22.03C288.98,51.26,291.11,51.65,293.25,52.44z"/>
	</g>
</g>
</svg>
