<?xml version="1.0" encoding="utf-8"?>
<!-- Generator: Adobe Illustrator 23.0.5, SVG Export Plug-In . SVG Version: 6.00 Build 0)  -->
<svg version="1.1" id="Layer_1" xmlns="http://www.w3.org/2000/svg" xmlns:xlink="http://www.w3.org/1999/xlink" x="0px" y="0px"
	 viewBox="0 0 388.29 423.86" style="enable-background:new 0 0 388.29 423.86;" xml:space="preserve">
<style type="text/css">
	.st0{fill:#145370;}
	.st1{fill:#CECECE;}
	.st2{fill:#1E608B;}
	.st3{fill:#C1C3C5;}
	.st4{fill:#9B9C9F;}
	.st5{fill:#1F608B;}
	.st6{fill:#8C8E92;}
	.st7{fill:#266389;}
	.st8{fill:#FCD7A7;}
	.st9{fill:#F2CC9E;}
	.st10{fill:#F0C691;}
	.st11{fill:#FEFEFE;}
	.st12{fill:#FBD7A7;}
	.st13{fill:#F0CC9E;}
	.st14{fill:#353535;}
	.st15{fill:#363535;}
	.st16{fill:#52514F;}
	.st17{fill:#4F4F4E;}
	.st18{fill:#545250;}
</style>
<g>
	<path class="st0" d="M174.77,10.4c3.73-1.09,7.45-2.18,11.18-3.28c5.33,0,10.67,0,16,0c5.03,1.46,10.2,2.54,15.06,4.44
		c19.48,7.62,34.54,21.15,47.8,36.85c29.56,35.01,50.25,74.91,64.64,118.23c1.2,3.62,1.99,7.39,2.88,11.11
		c1.75,7.31-1.15,13.59-4.53,19.71c-11.22,20.29-25.77,38.13-40.91,55.53c-1.74,2-3.41,4.06-5.12,6.09
		c-3.41,0.07-6.82,0.13-10.23,0.2c-12.31-0.05-24.61-0.1-36.92-0.15c-6.58-3.69-9.53-9.28-8.97-16.82c0.16-2.11-0.03-4.25-0.06-6.37
		c1.38-0.76,2.73-1.59,4.16-2.26c16.84-7.82,29.77-19.9,38.72-36.1c3.05-5.53,5.26-11.52,7.86-17.3c3.45,0.07,6.92,0.37,10.36,0.16
		c8.83-0.55,14.05-5.84,14.75-14.74c0.17-2.12-0.08-4.28,0.18-6.38c0.38-3.12-0.69-4.83-3.79-5.87c-5.38-1.81-10.62-4.06-15.92-6.13
		c-0.09-0.79,0.01-1.66-0.29-2.34c-5.41-11.99-10.27-24.28-16.45-35.86c-10.32-19.31-21.4-38.18-35.6-55.06
		c-10.83-12.87-22.29-25.01-36.54-34.1C187.25,16.29,180.87,13.56,174.77,10.4z"/>
	<path class="st1" d="M234.62,259.13c12.31,0.05,24.61,0.1,36.92,0.15c0.47,0.59,0.83,1.36,1.43,1.74c5.55,3.5,7.31,8.99,7.33,15
		c0.09,39.9,0.03,79.8,0.02,119.71c-1.86,0.04-3.72,0.13-5.59,0.13c-70.44,0.01-140.88,0.01-211.32,0.01
		c0.03-35.92,0.07-71.84,0.1-107.76c0.01-4.77,0.02-9.55,0.04-14.32c0.04-8.38,6.09-14.54,14.51-14.63
		c7.69-0.08,15.38,0.02,23.07-0.06c1.36-0.01,2.71-0.55,4.07-0.84c1.24,0.31,2.48,0.89,3.73,0.89c14.47,0.03,28.93-0.02,43.4-0.05
		C179.76,259.11,207.19,259.12,234.62,259.13z M213.2,333.32c0.03-11.31-8.01-19.71-18.93-19.79c-11.13-0.08-19.15,8.16-19.68,19.15
		c-0.52,10.75,8.69,19.82,19.44,19.97C204.48,352.79,213.17,343.81,213.2,333.32z"/>
	<path class="st2" d="M174.77,10.4c6.1,3.16,12.48,5.89,18.24,9.57c14.25,9.09,25.71,21.22,36.54,34.1
		c14.2,16.88,25.29,35.75,35.6,55.06c6.19,11.58,11.05,23.87,16.45,35.86c0.31,0.69,0.21,1.56,0.29,2.34
		c-0.78-0.06-1.57-0.12-2.35-0.17c-14.56-4.95-29.61-7.56-44.81-9.47c-4.76-0.55-9.51-1.25-14.28-1.61
		c-24.39-1.85-48.76-1.55-72.91,2.42c-12.94,2.13-25.66,5.59-38.48,8.45c-7.56,2.76-15.13,5.53-22.69,8.29
		c-12.33,5.27-23.85,11.58-30.71,23.88c2-7.38,3.49-14.94,6.08-22.1c12.89-35.68,30.31-69,53.53-99.08
		c13.42-17.38,28.49-33.12,48.49-43.17C167.28,13,171.09,11.84,174.77,10.4z"/>
	<path class="st3" d="M280.31,395.74c0.01-39.9,0.08-79.8-0.02-119.71c-0.01-6-1.78-11.5-7.33-15c-0.6-0.38-0.96-1.15-1.43-1.74
		c3.41-0.07,6.82-0.13,10.23-0.2c9.32,0.01,18.64,0.01,27.97,0.05c8.64,0.04,14.56,5.89,14.63,14.46c0.04,4.79,0,9.59,0,14.38
		c0.07,0.26,0.14,0.52,0.21,0.77c0.01,22.93,0.02,45.87,0.03,68.8c-0.05,12.52-0.11,25.05-0.16,37.57
		c-8.84,0.25-17.68,0.5-26.52,0.75C292.05,395.83,286.18,395.78,280.31,395.74z"/>
	<path class="st0" d="M55.67,179.12c6.86-12.3,18.39-18.61,30.71-23.88c-0.01,3.2-0.14,6.41,0,9.6c0.44,9.83,6.19,15.42,16,15.68
		c3.33,0.09,6.66,0.1,9.99,0.15c1.36,3.6,2.5,7.31,4.11,10.8c8.69,18.84,22.42,32.78,41.09,41.88c1.08,0.52,2.67,1.54,2.71,2.39
		c0.43,8.79,1.4,17.88-7.95,23.37c-14.47,0.03-28.93,0.09-43.4,0.05c-1.24,0-2.49-0.58-3.73-0.89
		C90.93,241.94,77,225.34,65.54,206.86c-3.27-5.28-6.35-10.8-8.63-16.56C55.58,186.94,56.02,182.87,55.67,179.12z"/>
	<path class="st4" d="M280.31,395.74c5.87,0.05,11.74,0.1,17.61,0.14c0.02,6.91,0.03,13.82,0.05,20.72
		c-1.46,0.04-2.93,0.12-4.39,0.12c-79.39,0.01-158.78,0.01-238.16,0c-0.79,0-1.59-0.08-2.38-0.13c-0.59-0.27-1.19-0.52-1.77-0.82
		c-4.84-2.52-6.72-7.34-5.22-13.33c0.99-3.96,4.75-6.55,9.77-6.64c2.53-0.05,5.06,0.04,7.59,0.06c70.44,0,140.88,0,211.32-0.01
		C276.59,395.86,278.45,395.78,280.31,395.74z"/>
	<path class="st5" d="M63.41,395.88c-2.53-0.03-5.06-0.11-7.59-0.06c-5.01,0.09-8.77,2.68-9.77,6.64c-1.5,5.99,0.38,10.8,5.22,13.33
		c0.58,0.3,1.18,0.55,1.77,0.82c-12.52,0.04-25.04,0.18-37.56,0.09c-6.42-0.04-9.79-4.09-8.86-10.4
		c4.21-28.45,11.28-56.04,25.05-81.54c6.7-12.4,15.02-23.57,25.96-32.6c1.83-1.51,3.91-2.7,5.88-4.04
		C63.47,324.04,63.44,359.96,63.41,395.88z"/>
	<path class="st0" d="M324.6,357.56c-0.01-22.93-0.02-45.87-0.03-68.8c0.25,0,0.5-0.04,0.75-0.12c6.36,5.96,13.5,11.29,18.95,17.99
		c15.7,19.32,24.34,42.15,30.32,66.01c2.87,11.43,4.9,23.07,7.1,34.66c0.91,4.78-2.99,9.33-8.06,9.37
		c-12.65,0.1-25.31-0.06-37.97-0.11c4.9-2.22,7.29-6.14,6.91-11.39c-0.38-5.31-3.49-8.63-8.74-9.83
		C330.76,382.74,327.68,370.15,324.6,357.56z"/>
	<path class="st6" d="M333.84,395.34c5.25,1.2,8.35,4.52,8.74,9.83c0.38,5.24-2.02,9.17-6.91,11.39
		c-12.56,0.01-25.13,0.03-37.69,0.04c-0.02-6.91-0.03-13.82-0.05-20.72c8.84-0.25,17.68-0.5,26.52-0.75
		C327.58,395.2,330.71,395.27,333.84,395.34z"/>
	<path class="st7" d="M325.32,288.64c-0.24,0.07-0.49,0.11-0.75,0.12c-0.07-0.26-0.14-0.52-0.21-0.77
		C324.69,288.2,325.01,288.42,325.32,288.64z"/>
	<path class="st8" d="M152.34,259.1c9.34-5.5,8.37-14.58,7.95-23.37c-0.04-0.85-1.64-1.87-2.71-2.39
		c-18.67-9.09-32.4-23.03-41.09-41.88c-1.61-3.49-2.75-7.19-4.11-10.8c-1.05-6.72-2.09-13.45-3.14-20.17c7.4,0,14.79,0,22,0
		c0.24,0.94,0.35,1.19,0.35,1.44c0.03,3.07,0.02,6.13,0.06,9.2c0.09,5.86,2.02,7.84,7.86,8.13c9.32,0.07,18.64-0.01,27.95,0.25
		c11.18,0.31,17.11-7.64,16.15-16.27c6.07-2.11,12.27-2.01,18.42-0.66c0.97,0.21,2.07,2.08,2.23,3.3c0.66,5.05,2.65,9.1,7.32,11.53
		c1.68,0.59,3.34,1.58,5.05,1.7c4.69,0.34,9.4,0.31,14.1,0.43c-0.17,1.3-0.12,2.68-0.55,3.89c-7.86,22.08-21.82,38.84-43.11,49.13
		c-4.2,2.03-8.52,3.81-13.34,5.95c1.69,0.59,2.75,1.13,3.88,1.34c12.78,2.37,25.49,2.33,38.1-1.18c3.29-0.92,6.59-1.82,9.89-2.72
		c0.03,2.12,0.22,4.26,0.06,6.37c-0.56,7.53,2.39,13.12,8.97,16.82C207.19,259.12,179.76,259.11,152.34,259.1z"/>
	<path class="st9" d="M225.59,235.94c-3.3,0.91-6.59,1.8-9.89,2.72c-12.6,3.52-25.32,3.55-38.1,1.18c-1.12-0.21-2.18-0.74-3.88-1.34
		c4.82-2.14,9.14-3.92,13.34-5.95c21.29-10.29,35.25-27.05,43.11-49.13c0.43-1.21,0.38-2.59,0.55-3.89
		c6.11-0.03,12.22,0.06,18.32-0.14c4.96-0.16,7.15-2.56,7.25-7.54c0.07-3.72,0.03-7.43,0.04-11.15c7.44-0.07,14.88-0.14,22.32-0.21
		c-0.78,6.59-1.56,13.19-2.34,19.78c-2.59,5.78-4.8,11.77-7.86,17.3c-8.95,16.2-21.88,28.28-38.72,36.1
		C228.32,234.35,226.98,235.19,225.59,235.94z"/>
	<path class="st10" d="M276.33,180.29c0.78-6.59,1.56-13.19,2.34-19.78c0.02-2.86,0.05-5.72,0.07-8.57
		c0.27-1.59,0.54-3.19,0.81-4.78c0.78,0.06,1.57,0.12,2.35,0.17c5.3,2.07,10.53,4.31,15.92,6.13c3.09,1.04,4.17,2.75,3.79,5.87
		c-0.26,2.1-0.01,4.26-0.18,6.38c-0.7,8.9-5.92,14.19-14.75,14.74C283.25,180.66,279.78,180.36,276.33,180.29z"/>
	<path class="st11" d="M213.2,333.32c-0.03,10.5-8.72,19.47-19.17,19.32c-10.74-0.15-19.96-9.22-19.44-19.97
		c0.53-10.99,8.55-19.23,19.68-19.15C205.19,313.61,213.23,322.01,213.2,333.32z"/>
	<path class="st12" d="M109.07,146.94c12.82-2.86,25.54-6.32,38.48-8.45c24.15-3.97,48.52-4.26,72.91-2.42
		c4.77,0.36,9.52,1.06,14.28,1.61c0,3.64,0,7.28,0,10.92c-7.72,0.1-15.44,0.21-23.15,0.31c-4.1-0.44-6.07,2.33-7.17,4.38
		c-7.48,0.33-14.15,0.62-20.81,0.91c-0.8-3.41-2.95-5.42-6.44-5.43c-12.79-0.02-25.58,0.09-38.37,0.15c-0.9,0.11-2.11-0.1-2.66,0.4
		c-4.01,3.6-8.85,2.53-13.48,2.59c-4.5,0.06-9,0.01-13.5,0.01C109.13,150.27,109.1,148.61,109.07,146.94z"/>
	<path class="st10" d="M109.07,146.94c0.03,1.67,0.06,3.33,0.09,5c0.02,2.85,0.05,5.7,0.07,8.55c1.05,6.72,2.09,13.45,3.14,20.17
		c-3.33-0.05-6.66-0.06-9.99-0.15c-9.81-0.26-15.56-5.85-16-15.68c-0.14-3.19-0.01-6.4,0-9.6
		C93.94,152.47,101.5,149.71,109.07,146.94z"/>
	<path class="st13" d="M234.74,148.61c0-3.64,0-7.28,0-10.92c15.2,1.91,30.25,4.52,44.81,9.47c-0.27,1.59-0.54,3.19-0.81,4.78
		c-7.74,0.02-15.47,0.04-23.21,0.06c-2.42-1.08-4.75-2.8-7.27-3.11C243.82,148.34,239.26,148.66,234.74,148.61z"/>
	<path class="st7" d="M333.84,395.34c-3.13-0.07-6.26-0.14-9.39-0.21c0.05-12.52,0.11-25.05,0.16-37.57
		C327.68,370.15,330.76,382.74,333.84,395.34z"/>
	<path class="st14" d="M234.74,148.61c4.51,0.05,9.07-0.27,13.52,0.28c2.51,0.31,4.85,2.03,7.27,3.11c0.27,2.91,0.54,5.81,0.81,8.72
		c-0.01,3.72,0.03,7.44-0.04,11.15c-0.1,4.98-2.29,7.38-7.25,7.54c-6.1,0.19-12.21,0.1-18.32,0.14c-4.7-0.12-9.42-0.09-14.1-0.43
		c-1.72-0.12-3.37-1.11-5.05-1.7c0-9.5,0.01-18.99,0.01-28.49C219.31,148.82,227.03,148.72,234.74,148.61z"/>
	<path class="st15" d="M138.8,148.94c12.79-0.06,25.58-0.17,38.37-0.15c3.5,0.01,5.64,2.02,6.44,5.43c0,3.01,0,6.01,0,9.02
		c0.96,8.63-4.97,16.58-16.15,16.27c-9.31-0.25-18.63-0.18-27.95-0.25C139.27,169.16,139.04,159.05,138.8,148.94z"/>
	<path class="st16" d="M138.8,148.94c0.24,10.11,0.47,20.21,0.71,30.32c-5.84-0.29-7.77-2.28-7.86-8.13
		c-0.05-3.07-0.03-6.13-0.06-9.2c0-0.25-0.12-0.51-0.35-1.44c-7.21,0-14.61,0-22,0c-0.02-2.85-0.05-5.7-0.07-8.55
		c4.5,0,9,0.05,13.5-0.01c4.63-0.06,9.47,1.01,13.48-2.59C136.69,148.84,137.89,149.06,138.8,148.94z"/>
	<path class="st17" d="M183.61,163.24c0-3.01,0-6.01,0-9.02c6.67-0.29,13.33-0.59,20.81-0.91c1.1-2.05,3.07-4.83,7.17-4.38
		c0,9.5-0.01,18.99-0.01,28.49c-4.67-2.43-6.66-6.48-7.32-11.53c-0.16-1.22-1.26-3.09-2.23-3.3
		C195.88,161.23,189.68,161.13,183.61,163.24z"/>
	<path class="st18" d="M256.35,160.72c-0.27-2.91-0.54-5.81-0.81-8.72c7.74-0.02,15.47-0.04,23.21-0.06
		c-0.02,2.86-0.05,5.72-0.07,8.57C271.23,160.58,263.79,160.65,256.35,160.72z"/>
</g>
</svg>
