<?xml version="1.0" encoding="utf-8"?>
<!-- Generator: Adobe Illustrator 23.0.5, SVG Export Plug-In . SVG Version: 6.00 Build 0)  -->
<svg version="1.1" id="Layer_1" xmlns="http://www.w3.org/2000/svg" xmlns:xlink="http://www.w3.org/1999/xlink" x="0px" y="0px"
	 viewBox="0 0 354.37 368.64" style="enable-background:new 0 0 354.37 368.64;" xml:space="preserve">
<style type="text/css">
	.st0{fill-rule:evenodd;clip-rule:evenodd;fill:#6B809B;}
	.st1{fill-rule:evenodd;clip-rule:evenodd;fill:#FFFFFF;}
	.st2{fill-rule:evenodd;clip-rule:evenodd;fill:#00BCD4;}
	.st3{fill-rule:evenodd;clip-rule:evenodd;fill:#D3AA96;}
	.st4{fill-rule:evenodd;clip-rule:evenodd;fill:#02ABC1;}
	.st5{fill-rule:evenodd;clip-rule:evenodd;fill:#E8E8E8;}
	.st6{fill-rule:evenodd;clip-rule:evenodd;fill:#FFCEB4;}
	.st7{fill-rule:evenodd;clip-rule:evenodd;}
	.st8{fill-rule:evenodd;clip-rule:evenodd;fill:#4F6074;}
</style>
<g>
	<path class="st0" d="M158.44,295.07l-38.1-63.5C71.22,248.21,7.15,252.76,2.55,318.87c-0.58,8.38-1.94,29.3-2.55,49.77h177.19
		h177.19c-0.6-20.46-1.96-41.39-2.55-49.77c-4.6-66.11-68.67-70.66-117.79-87.3l-38.1,63.5H158.44z"/>
	<path d="M248.34,63.3l-1.32,28.65c11.32,21.47-0.25,33.2-6.2,37.47c-2.83,24.67-16.95,41.13-34.82,49.33
		c-8.74,4.01-18.33,6.02-27.88,6.02c-9.55,0-19.14-2.01-27.88-6.02c-17.86-8.2-31.99-24.66-34.82-49.33
		c-5.94-4.27-17.52-16.01-6.2-37.47l-1.33-28.65l0.24-1.93c5.22-17.85,17.29-30.7,32.33-38.57c12.14-6.35,26.22-9.43,40.11-9.22
		c13.95,0.21,27.79,3.72,39.37,10.54c13.62,8.01,24.14,20.52,28.22,37.54L248.34,63.3z"/>
	<path class="st1" d="M176.82,254.87c31.33,0,56.72,21.07,56.72,39.43c0,18.36-11.95,67.65-29.57,74.34h-54.31
		c-17.61-6.69-29.56-55.99-29.56-74.34S145.49,254.87,176.82,254.87z"/>
	<polygon class="st2" points="177.57,255.29 156.18,277.84 162.55,285.98 146.1,368.64 164.12,368.64 191.04,368.64 205.35,368.02 
		194.58,286.01 198.96,277.84 	"/>
	<polygon class="st3" points="225.06,161.77 227.42,210.26 176.02,261.77 127.71,209 129.93,161.62 	"/>
	<polygon class="st4" points="174.12,255.29 156.18,277.84 162.55,285.98 162.54,286.01 194.58,286.01 198.96,277.84 181.42,255.29 
			"/>
	<polygon class="st5" points="106.19,231.57 127.84,206.09 177.57,255.3 139.54,297.82 	"/>
	<polygon class="st5" points="248.94,231.57 227.29,206.09 177.57,255.3 215.6,297.82 	"/>
	<path class="st3" d="M248.41,100.15c0,0,24.38,35.69-7.35,50.42L248.41,100.15z"/>
	<path class="st3" d="M106.73,100.15c0,0-24.38,35.69,7.35,50.42L106.73,100.15z"/>
	<path class="st6" d="M183.85,32.23c38.94,0,65.4,30.56,65.4,82.68c0,33.94-24.92,103.58-64.98,103.58c-4.48,0-8.93,0-13.42,0
		c-40.06,0-64.98-69.64-64.98-103.58c0-52.12,26.47-82.68,65.41-82.68C175.48,32.23,179.66,32.23,183.85,32.23z"/>
	<path class="st7" d="M105.88,114.89c0,0-9.29-63.61,1.41-69.24c-2.03-11.48,9.33-21.77,17.38-24.84c0,0,14.08-16.61,47.29-19.98
		c0,0,50.24-9.58,79.68,36.59c4.76,7.46,3.96,5.79-1.43,12.67c3.78,19.94,3.41,46.56-0.97,66.13c0,0-7.75-49.52-16.48-56
		c0,0-51.23,27.59-107.81-4.79c0,0-7.7,5.68-11.19,19.6c-0.78,3.12-1.29,6.18-1.82,9.84C110.4,95.42,108.33,104.32,105.88,114.89z"
		/>
	<g>
		<polygon class="st8" points="127.57,368.64 90.36,297.92 101.94,277.98 81.09,271.47 85.02,240.74 107.89,231.57 107.89,231.57 
			108.94,233.64 177.19,368.64 		"/>
		<polygon class="st8" points="226.8,368.64 264.01,297.92 252.43,277.98 273.28,271.47 269.35,240.74 246.48,231.57 246.48,231.57 
			245.43,233.64 177.19,368.64 		"/>
	</g>
	<g>
		<polygon class="st8" points="68.35,324.44 76.34,368.64 63.29,368.64 		"/>
		<polygon class="st8" points="286.02,324.44 278.03,368.64 291.08,368.64 		"/>
	</g>
</g>
</svg>
