<?xml version="1.0" encoding="utf-8"?>
<!-- Generator: Adobe Illustrator 23.0.5, SVG Export Plug-In . SVG Version: 6.00 Build 0)  -->
<svg version="1.1" id="Layer_1" xmlns="http://www.w3.org/2000/svg" xmlns:xlink="http://www.w3.org/1999/xlink" x="0px" y="0px"
	 viewBox="0 0 846.86 1080" style="enable-background:new 0 0 846.86 1080;" xml:space="preserve">
<style type="text/css">
	.st0{fill:#A5C9CA;}
</style>
<g>
	<path class="st0" d="M2057.41-416.64c-14.97,11.38-28.67,21.66-42.19,32.16c-3.85,2.99-7.95,6.11-10.62,10.04
		c-8.4,12.39-19.96,14.13-34.18,14.09c-175.52-0.46-351.03-0.3-526.55-0.3c-5.14,0-10.28,0-16.02,0c0,190.52,0,383.95,0,576
		c281.59,0,563.29,0,846.03,0c0.14-2.77,0.42-5.81,0.42-8.84c0.03-47.94,0.17-95.88-0.11-143.82c-0.04-6.49,1.94-9.47,8-11.91
		c13-5.22,25.57-11.54,38.96-17.7c0.14,3.08,0.38,5.84,0.38,8.6c0.03,71.91,0.05,143.82,0.03,215.74
		c-0.01,34.38-20.55,55.09-54.84,55.1c-276.96,0.03-553.93,0.03-830.89,0c-35.8,0-55.83-20.08-55.83-55.78
		c-0.01-205.63,0.1-411.26-0.15-616.89c-0.03-23.68,8.11-42.06,30.13-51.77c8.1-3.57,17.92-4.45,26.96-4.49
		c77.11-0.34,154.22-0.2,231.33-0.2c125.92-0.01,251.84-0.02,377.76-0.03C2049.46-416.64,2052.63-416.64,2057.41-416.64z
		 M2210.15,290.69c28.83-0.7,24.24,5.73,24.7-24.66c0.08-5.39-2.17-7.9-7.72-7.75c-7.17,0.2-14.36-0.05-21.54,0.03
		c-27.7,0.34-23-4.13-23.46,24.7c0,0.29-0.12,0.7,0.03,0.84c2.25,2.29,4.3,6.14,6.84,6.51
		C2195.48,291.31,2202.18,290.69,2210.15,290.69z"/>
	<path class="st0" d="M2186.47,58.41c-137.93-0.46-249.06-112.17-248.73-250.03c0.34-138.42,112.54-249.11,252.05-248.65
		c136.3,0.44,247.34,113.63,246.7,251.48C2435.85-52.27,2323.45,58.87,2186.47,58.41z M1982.76-189.99
		c0.16,112.6,91.78,203.42,205.19,203.4c112.43-0.02,203.68-92.01,203.53-205.2c-0.15-112.09-92.05-203.56-204.46-203.53
		C2073.83-395.27,1982.6-303.56,1982.76-189.99z"/>
	<path class="st0" d="M1788.27,322.36c41.75,0,82.07,0,123.35,0c0.17,3.18,0.47,6.22,0.47,9.26c0.04,22.51,0.17,45.02-0.09,67.53
		c-0.08,6.9,2.19,9.53,9.43,9.9c49,2.51,97.96,5.82,145.9,17.04c12.79,2.99,25.34,7.71,37.35,13.08c9.48,4.24,9.58,10.48-0.2,14.1
		c-18.54,6.85-37.49,13.63-56.87,17.01c-85.95,14.98-172.78,17.32-259.67,13.02c-44.58-2.21-89.08-7.26-133.38-12.86
		c-18.35-2.32-36.22-9.05-54.04-14.64c-4.43-1.39-7.81-6.16-11.67-9.38c3.97-3.43,7.43-8.71,12-9.99
		c22.97-6.41,45.96-13.71,69.47-17.06c35.35-5.04,71.13-7.16,106.75-10.33c11.07-0.99,11.22-0.83,11.22-12.36
		c0-21.35-0.01-42.71-0.02-64.06C1788.27,329.49,1788.27,326.36,1788.27,322.36z"/>
	<path class="st0" d="M1790.01,128.85c0.15-0.85,0.33-1.7,0.45-2.56c2.65-19.49-0.85-24.15-20.23-26.88
		c-7.88-1.11-13.39-14.39-8.55-20.61c12.33-15.87,11.51-22.83-4.17-35.08c-5.87-4.59-4.06-19.37,2.78-22.55
		c1.57-0.73,3.19-1.34,4.76-2.05c13.71-6.19,16.99-13.94,11.18-27.7c-2.01-4.75-3.59-8.58,0.82-13.13
		c4.21-4.34,6.91-8.51,14.76-6.79c15.5,3.4,23.19-2.55,24.21-18.51c0.47-7.37,4.71-8.67,9.7-11.02c5.1-2.4,8.67-1.74,13.05,2.03
		c12.29,10.58,21.79,9.7,31.24-3.61c4.37-6.17,9.14-5.52,14.9-4.89c5.57,0.61,9.01,2.52,11.09,8.6
		c5.38,15.77,14.02,19.33,29.54,12.34c5.68-2.56,8.96-0.75,12.93,2.6c4.07,3.44,7.33,6.09,5.77,12.8
		c-3.66,15.74,1.6,22.66,17.44,25.25c12.38,2.03,17.05,13.48,9.41,23.07c-9.61,12.06-8.66,21.64,4.02,30.79
		c4.94,3.57,6.92,7.13,5.39,12.9c-1.42,5.32-0.92,10.66-8.65,13.05c-15.85,4.9-19.8,14.44-12.8,29.34
		c2.64,5.64,1.23,8.89-2.13,12.91c-3.59,4.3-6.34,7.7-13.47,5.95c-15.5-3.81-23.46,2.49-24.68,18.84c-0.43,5.73-2.94,8.27-7.69,9.78
		c-4.93,1.57-9.02,4.58-14.71-0.64c-12.59-11.55-22.25-10.1-32.44,3.91c-3.01,4.14-5.88,5.89-10.71,4.53
		c-5.16-1.46-11.12,0.13-13.89-7.52c-6.58-18.18-13-20.47-31.87-13.3C1801.41,143,1789.88,135.17,1790.01,128.85z M1933.25,48.73
		c0.18-36.55-29.08-66.28-65.41-66.47c-36.26-0.18-66.36,29.39-66.72,65.55c-0.36,36.04,29.4,66.06,65.78,66.36
		C1903.52,114.48,1933.07,85.32,1933.25,48.73z"/>
	<path class="st0" d="M1692.34-184.71c-4.08-6.88-6.88-12.44-10.45-17.46c-4.96-6.96,0.05-19.77,8.54-21
		c19.14-2.77,23.06-8.04,20.14-27.1c-1.19-7.81,9.75-16.76,17.1-13.98c19.14,7.25,24.24,5.03,32.42-14.08
		c3.11-7.26,18.09-9.32,23.11-3.17c12.94,15.87,18.86,16.8,34.97,3.91c5.12-4.1,8.92-1.21,12.51,0.72c3.24,1.74,7.22,5.22,7.72,8.43
		c2.97,19.01,7.61,22.78,27.16,20.17c8.54-1.14,17.09,9.87,13.87,17.86c-7.07,17.48-4.21,24.09,13.53,31.34
		c8.51,3.48,10.65,18.25,3.45,23.85c-14.83,11.53-16.2,19.9-4.05,33.76c4.54,5.18,1.84,8.87,0.22,13.24
		c-1.61,4.33-3.08,7.89-9.29,8.33c-17.54,1.23-23.22,8.52-19.49,25.67c1.54,7.08-2.62,9.16-6.37,12.45
		c-3.6,3.16-6.68,4.84-12.14,2.22c-15.32-7.36-24.95-3.51-30.12,12.63c-2.47,7.71-7.78,7.05-13.17,8.37
		c-5.46,1.33-8.78-0.2-12.23-4.9c-10.19-13.9-19.25-14.94-32.54-3.33c-4.98,4.35-8.58,2.56-13.14,0.77
		c-4.75-1.85-8.29-3.69-8.78-10.02c-1.34-17.29-8.76-22.83-26.05-19.01c-6.2,1.37-8.32-1.85-11.2-5.36
		c-3.08-3.76-5.95-6.81-3.21-12.88c7.42-16.44,3.87-24.62-12.95-30.72c-5.36-1.95-7.17-4.96-7.47-10.02
		c-0.33-5.5-2.69-10.72,4.11-15.16C1683.87-172.62,1687.37-178.9,1692.34-184.71z M1786.81-105.79
		c36.56,0.23,66.09-28.98,66.27-65.55c0.18-36.46-29.18-66.17-65.59-66.39c-36.32-0.22-66.17,29.37-66.29,65.71
		C1721.09-135.42,1750.22-106.01,1786.81-105.79z"/>
	<path class="st0" d="M1600.73,115.26c-9.21-0.36-15.55-6.27-16.97-14.65c-2.57-15.14-9.76-20.5-24.93-16.94
		c-6.48,1.52-9.48-1.09-13-5.34c-3.56-4.29-5.23-7.8-2.54-13.76c6.82-15.13,2.94-23.65-13.17-29.17c-5.77-1.98-7.54-5.41-8.03-10.56
		c-0.52-5.51-2.17-10.4,4.41-14.91c13.75-9.43,14.68-19.29,3.53-31.82c-4.5-5.06-3.17-8.94-1.24-13.89
		c1.86-4.75,3.63-8.05,9.99-8.55c16.73-1.32,22.56-9.3,18.88-25.55c-1.28-5.65,0.4-8.63,4.47-11.55c4.29-3.08,7.47-6.71,14.27-3.57
		c15.32,7.08,24.17,3.17,29.5-12.61c2.07-6.12,5.58-7.99,11.1-8.48c5.31-0.48,10-1.78,14.27,4.23
		c10.01,14.09,19.47,14.94,32.45,3.51c3.95-3.48,7.23-3.98,11.46-1.72c4.24,2.27,9.53,2.26,10.4,9.56
		c2.28,19.17,8.44,23.59,27.14,19.75c6.41-1.32,8.6,2.58,10.82,6.11c1.98,3.14,4.03,7.98,2.98,11.02
		c-6.55,19-4.34,24.48,14.71,32.41c7.36,3.07,9.51,17.95,3.32,22.96c-15.71,12.73-16.45,19.3-3.95,35.14
		c4.32,5.48-0.19,18.31-7.05,19.93c-1.68,0.4-3.42,0.55-5.12,0.86c-14.74,2.69-20.25,9.88-16.82,24.28
		c1.59,6.68-0.65,9.97-5.31,13.71c-4.42,3.54-7.97,4.98-13.82,2.32c-14.7-6.67-22.83-2.75-28.9,12.65
		c-4.29,10.9-18.16,12.96-25.52,3.8c-10.49-13.05-19.09-13.87-32.24-3.12C1603.9,112.89,1601.91,114.35,1600.73,115.26z
		 M1634.64,72.52c36.65-0.01,66.08-29.31,66.05-65.77c-0.02-36.56-29.48-66.15-65.83-66.13c-36.49,0.02-66.14,29.59-66.08,65.89
		C1568.84,43.13,1598.17,72.53,1634.64,72.52z"/>
	<path class="st0" d="M2224.86,268.36c0,4.08,0,7.73,0,12c-10.67,0-21.11,0-32,0c0-4.1,0-7.77,0-12
		C2203.55,268.36,2213.97,268.36,2224.86,268.36z"/>
	<path class="st0" d="M2170.83-170.22c-7.01-7.12-12.65-12.85-18.68-18.97c-1.84,1.73-3.48,3.21-5.04,4.76
		c-11.24,11.17-18.42,11.35-29.74,0.11c-25.19-25.01-50.28-50.13-75.32-75.3c-9.89-9.94-10.5-18.08-1.22-28.74
		c6.79-7.79,14.21-15.21,22.24-21.68c9.74-7.84,17.18-6.98,26.03,1.81c25.81,25.63,51.53,51.33,77.17,77.13
		c9.18,9.24,9.16,18.5,0.05,27.27c-2.04,1.96-5.08,2.89-7.66,4.29c0.74,0.84,1.49,1.67,2.23,2.51c0.71,0.89,1.35,1.84,2.13,2.67
		c4.74,5.04,9.51,10.05,15.22,16.08c8.6-8.84,16.56-17.1,24.6-25.28c6.07-6.17,11.89-12.67,18.46-18.26
		c10.33-8.8,14.83-17.36,12.36-32.79c-5.76-35.92,30.19-64.34,68.03-54.43c-7.85,7.98-14.74,15.87-22.57,22.67
		c-5.56,4.83-6.96,9.75-5.22,16.59c1.84,7.25,2.49,14.83,4.58,21.99c0.74,2.54,4.2,4.29,6.45,6.37c0.17,0.16,0.56,0.08,0.84,0.13
		c9.93,1.68,20.9,6.73,29.51,4.09c8.59-2.64,14.86-12.94,22.06-19.97c2.44-2.39,4.62-5.05,8.14-8.94
		c4.73,16.24,3.71,29.97-3.8,42.97c-12.18,21.07-35.78,31.08-60.15,24.93c-6.02-1.52-9.43-0.2-13.46,3.88
		c-17.22,17.44-34.73,34.59-54.19,53.9c6.71,5.76,13.01,10.74,18.82,16.24c18.22,17.25,36.47,34.49,54.19,52.25
		c3.46,3.47,4.56,9.29,7.24,15.07c-9.21,0.58-14.59-1.76-19.77-7.37c-21.51-23.28-43.55-46.06-67.55-71.3
		c-3.49,4.51-5.92,8.42-9.08,11.6c-24.39,24.58-48.91,49.05-73.42,73.51c-7.64,7.62-24.23,6.6-32.74,0.23
		c-10.56-7.9-10.84-18.18-9.68-29.2c0.29-2.73,2.58-5.62,4.67-7.73c25.41-25.61,50.94-51.09,76.5-76.56
		C2165.3-165.94,2167.91-167.8,2170.83-170.22z M2142.64-94c1.91-1.44,5.57-3.6,8.5-6.5c18.01-17.84,35.85-35.86,53.76-53.8
		c12.83-12.84,25.7-25.64,38.54-38.47c4.74-4.73,6.19-10.16,1.06-15.15c-5.01-4.87-10.45-3.72-15.18,1.15
		c-0.8,0.83-1.67,1.59-2.49,2.4c-29.33,29.34-58.67,58.67-87.98,88.04c-2.43,2.44-5.12,4.81-6.9,7.69
		C2127.93-102.11,2132.86-93.88,2142.64-94z M2123.44-71.39c0.07-9.35-6.01-15.6-15.17-15.6c-9.27,0-15.71,6.11-15.83,15.03
		c-0.13,9.34,5.96,15.9,14.86,15.99C2117.36-55.85,2123.37-61.59,2123.44-71.39z"/>
</g>
<g>
	<path class="st0" d="M659.77,969.26c3.29-26.78,6.47-53.58,9.91-80.34c4.17-32.44,8.71-64.84,12.8-97.29
		c1.77-14.03-7.76-24.41-22.11-24.43c-50.47-0.08-100.94-0.03-151.41-0.03c-3.26,0-6.51,0-10.25,0c2.34-21.86,4.38-43,6.97-64.08
		c1.03-8.38,0.38-15.26-5.82-22.14c-7.74-8.6-13.79-18.73-20.51-28.13c-43.59,22.2-68.31,21.14-113.17-4.37
		c-6.56,13.52-13.24,27.01-19.55,40.67c-0.88,1.91-0.12,4.7,0.2,7.04c3.2,23.43,6.46,46.85,9.81,71.01c-3.63,0-6.89,0-10.14,0
		c-51.37,0-102.74-0.02-154.12,0.01c-16.98,0.01-25.64,9.43-23.47,26.27c7.01,54.46,14.3,108.89,21.4,163.35
		c0.54,4.11,0.42,8.3,0.61,12.46c-9.62,0-19.24,0-28.85,0c-18.76-7.35-23.17-22.11-23.37-40.83c-0.34-32.12-3.32-64.22-3.44-96.33
		c-0.06-16.02,1.96-32.54,6.14-48c10.6-39.12,36.98-63.72,75.78-74.45c28.29-7.82,56.92-14.45,85.39-21.62
		c0.87-0.22,1.75-0.42,2.61-0.69c31.74-10.12,38.02-16.83,45.38-49.48c0.52-2.3-0.99-5.52-2.44-7.74
		c-21.62-33.13-43.81-65.89-64.8-99.41c-4.87-7.78-6.87-17.9-8.19-27.22c-1.63-11.52,3.09-21.52,13.61-27.26
		c4.72-2.57,5.13-5.55,4.96-10.03c-0.69-18.31-1.63-36.64-1.52-54.95c0.33-54.06,25.68-90.92,75.97-110.61
		c8.93-3.5,16.21-7.89,22.03-15.97c2.63-3.65,9.77-6.06,14.65-5.76c29.14,1.82,56.17,11.58,82.31,24c4.87,2.31,9.53,5.05,14.29,7.57
		c40.53,21.46,59.79,55.91,60.67,100.98c0.37,19.2-0.81,38.43-1.48,57.65c-0.15,4.44,0.32,7.38,5.1,9.81
		c9.18,4.68,11.83,13.76,10.16,23.09c-1.72,9.64-3.69,19.95-8.57,28.17c-18.34,30.94-37.7,61.27-57.16,91.53
		c-4.66,7.24-11.18,13.29-17.05,20.13c11.25,20.99,24.8,39.18,50.59,44.86c27.48,6.05,54.5,14.22,81.94,20.51
		c60.57,13.88,80.46,55.84,84.28,100.84c2.38,28.04,1.2,56.4,1.47,84.61c0.12,12.01-0.66,24.05-0.13,36.04
		c1.08,24.28-2.83,31.2-24.46,40.56C677.8,969.26,668.78,969.26,659.77,969.26z M320.02,487c-4.41-0.24-7.36-0.61-10.3-0.53
		c-15.34,0.4-21.53,7.99-17.79,22.76c1.6,6.3,4.09,12.65,7.51,18.16c15.81,25.48,31.72,50.92,48.37,75.86
		c6.45,9.66,14.19,18.76,22.65,26.72c24.09,22.69,52.47,27.7,83.46,17.16c21.49-7.31,36.34-23.26,48.28-41.57
		c17.36-26.61,33.82-53.82,50.17-81.08c3.46-5.77,5.25-12.72,6.95-19.35c2.79-10.87-0.06-14.15-11.51-14.33
		c-5.76-0.09-11.53-0.02-17.79-0.02c3.84-17.13,7.24-32.3,10.68-47.61c-1.18-0.24-2.06-0.66-2.88-0.56
		c-31.07,3.94-60.9-2.53-90.62-10.46c-29.02-7.74-58.11-15.42-88.63-12.89c-15.52,1.29-30.61,4.32-44.48,11.17
		C316.1,449.55,318,467.7,320.02,487z"/>
	<path class="st0" d="M66.18,464.35c0-24.65,0-49.31,0-73.96c1.85-32.81,28.81-56.9,60.54-54.53c10.12,0.76,20.35,0.12,30.19,0.12
		c5.5-14.33,10.73-27.96,16.56-43.17c-9.89-9.47-20.47-19.24-30.65-29.42c-20.93-20.94-20.73-55.32,0.27-76.15
		c16.43-16.29,32.91-32.52,49.39-48.76c24.88-24.5,57.44-24.63,82.35-0.08c7.88,7.77,15.16,16.16,22.22,23.75
		c13.85-6.18,25.97-11.31,37.75-17.11c2.12-1.05,3.94-4.84,4.07-7.45c0.77-15.58-0.34-31.35,1.71-46.73
		c3.3-24.83,25.3-43.91,50.3-44.67c21.61-0.66,43.28-0.65,64.9-0.03c28.66,0.83,51.31,24.56,52.18,54.03
		c0.36,12.31-0.26,24.65,0.34,36.95c0.14,2.94,2.69,7.03,5.28,8.35c11.17,5.69,22.77,10.55,36.9,16.93
		c7.05-7.76,14.49-16.78,22.78-24.94c23.75-23.34,56.58-23.2,80.38,0.06c16.97,16.59,33.9,33.23,50.67,50.03
		c20.9,20.93,20.66,55.03-0.32,76.17c-8.89,8.96-17.94,17.76-26.49,27.04c-1.62,1.76-2.34,5.82-1.52,8.13
		c4.29,12.12,9.21,24.02,14.33,37.06c10.21,0,21.27-0.04,32.33,0.01c34.16,0.14,57.86,23.65,57.98,57.59
		c0.08,22.84,0.11,45.68-0.01,68.51c-0.18,32.91-23.37,56.17-56.1,56.39c-11.72,0.08-23.44,0.19-35.16-0.08
		c-4.48-0.1-6.91,0.97-8.58,5.61c-2.93,8.15-6.52,16.13-10.64,23.74c-1.31,2.42-5.14,4.79-7.9,4.89
		c-14.1,0.49-28.22,0.23-43.71,0.23c2.55-4.47,4.97-8.04,6.73-11.91c7.03-15.52,14.28-30.97,20.61-46.78
		c5.45-13.59,10.59-17.85,25.47-17.91c16.53-0.06,33.05,0.07,49.58-0.05c11.72-0.09,16.34-4.75,16.37-16.39
		c0.06-21.94,0.07-43.87-0.01-65.81c-0.04-11.31-4.49-15.81-15.82-15.91c-15.92-0.13-31.85,0.05-47.78-0.07
		c-12.99-0.1-19.05-5.91-23.21-18.23c-6.38-18.95-13.39-37.73-21.2-56.13c-5.87-13.82-5.47-20.58,5.3-31.45
		c12.05-12.17,24.12-24.32,36.2-36.47c7.76-7.8,7.84-13.32-0.17-21.36c-15.69-15.76-31.44-31.45-47.28-47.06
		c-7.9-7.78-13.75-8.01-21.76-0.32c-11.28,10.81-22.13,22.06-33.23,33.06c-10.56,10.47-18.46,10.73-31.44,4.03
		c-17.51-9.03-35.42-17.4-53.62-24.97c-14.5-6.03-18.59-10.68-18.61-26.79c-0.02-15.93,0.04-31.85-0.02-47.78
		c-0.05-12.75-4.12-16.93-16.55-16.97c-16.23-0.06-32.45-0.05-48.68,0c-13,0.03-16.95,4.1-16.98,17.45
		c-0.04,16.23,0.03,32.45-0.02,48.68c-0.05,14.35-4.4,19.33-17.39,24.88c-18.95,8.09-37.63,16.89-56.03,26.17
		c-11.5,5.8-19.91,5.46-29.28-3.77c-10.71-10.54-21.22-21.28-31.91-31.83c-10.45-10.31-15.51-10.33-25.67-0.25
		c-15.14,15.03-30.3,30.04-45.36,45.15c-8.41,8.43-8.32,13.78-0.13,22.01c12.51,12.56,25.04,25.11,37.46,37.76
		c8.71,8.87,9.22,16.32,4.58,27.77c-7.96,19.64-15.35,39.52-22.35,59.52c-3.71,10.58-10.38,16.73-21.6,16.87
		c-16.22,0.19-32.45-0.02-48.68,0.09c-11.88,0.08-16.21,4.47-16.25,16.39c-0.06,21.94-0.07,43.87,0.01,65.81
		c0.04,11.05,4.75,15.81,15.94,15.9c17.13,0.15,34.26-0.05,51.38,0.07c13.2,0.1,18.57,4.61,23.53,16.69
		c8.16,19.87,17.02,39.45,25.89,59.86c-14.17,0-29.53,0.14-44.89-0.2c-1.62-0.04-3.78-2.55-4.68-4.41
		c-3.76-7.82-7.55-15.68-10.48-23.83c-1.77-4.92-4.33-6.19-9.25-6.01c-10.5,0.38-21.03,0.13-31.55,0.12
		C90.92,518.46,69.53,498.99,66.18,464.35z"/>
	<path class="st0" d="M448.48,766.88c-13.9,0-27.33,0-41.26,0c-1.57-19.14,9.39-38.31-0.68-57.05
		c-10.22,3.88-20.74,7.78-31.19,11.87c-6.39,2.5-11.47,1.05-13.43-5.53c-2.32-7.82-5.5-16.17-4.76-23.96
		c1.62-17.03,9.38-21.24,25.04-14.99c9.13,3.65,18.33,7.68,26.48,13.08c8.23,5.45,15.11,3.93,23.09,0.26
		c14.93-6.87,30.12-13.19,45.33-19.44c1.62-0.67,4.65,0.01,6.04,1.2c16.47,14.26,15.43,38.53-2.27,51.31
		c-1.73,1.25-5.03,1.42-7.19,0.76c-9.11-2.8-18.06-6.1-28.02-9.54C441.55,732.24,448.54,748.97,448.48,766.88z"/>
	<path class="st0" d="M423.65,920.7c-16.95,0.16-30.58-13.16-30.62-29.9c-0.03-16.34,13.25-29.75,29.66-29.94
		c16.99-0.19,30.5,13.03,30.51,29.88C453.22,907.19,440.05,920.55,423.65,920.7z"/>
</g>
</svg>
