<?xml version="1.0" encoding="utf-8"?>
<!-- Generator: Adobe Illustrator 23.0.5, SVG Export Plug-In . SVG Version: 6.00 Build 0)  -->
<svg version="1.1" id="Layer_1" xmlns="http://www.w3.org/2000/svg" xmlns:xlink="http://www.w3.org/1999/xlink" x="0px" y="0px"
	 viewBox="0 0 1176 1080" style="enable-background:new 0 0 1176 1080;" xml:space="preserve">
<style type="text/css">
	.st0{fill:#A5C9CA;}
</style>
<g>
	<path class="st0" d="M737.41,62c-14.97,11.38-28.67,21.66-42.19,32.16c-3.85,2.99-7.95,6.11-10.62,10.04
		c-8.4,12.39-19.96,14.13-34.18,14.09c-175.52-0.46-351.03-0.3-526.55-0.3c-5.14,0-10.28,0-16.02,0c0,190.52,0,383.95,0,576
		c281.59,0,563.29,0,846.04,0c0.14-2.77,0.42-5.8,0.42-8.84c0.03-47.94,0.17-95.88-0.12-143.82c-0.04-6.49,1.94-9.47,8-11.91
		c13-5.22,25.57-11.54,38.96-17.7c0.14,3.08,0.38,5.84,0.38,8.6c0.03,71.91,0.05,143.82,0.03,215.74
		c-0.01,34.38-20.55,55.09-54.84,55.1c-276.96,0.03-553.93,0.03-830.89,0c-35.8,0-55.83-20.08-55.83-55.78
		c-0.01-205.63,0.1-411.26-0.15-616.89c-0.03-23.68,8.11-42.06,30.13-51.77c8.1-3.57,17.92-4.45,26.96-4.49
		c77.11-0.34,154.22-0.2,231.33-0.2C474.18,62.02,600.1,62.01,726.02,62C729.46,62,732.62,62,737.41,62z M890.15,769.33
		c28.83-0.7,24.24,5.73,24.7-24.66c0.08-5.39-2.16-7.9-7.72-7.75c-7.17,0.2-14.36-0.05-21.54,0.03c-27.7,0.34-23-4.13-23.46,24.7
		c0,0.29-0.12,0.7,0.03,0.84c2.25,2.29,4.3,6.14,6.84,6.51C875.48,769.95,882.18,769.33,890.15,769.33z"/>
	<path class="st0" d="M866.47,537.05c-137.93-0.46-249.06-112.17-248.73-250.03c0.34-138.42,112.54-249.11,252.05-248.65
		c136.3,0.44,247.34,113.63,246.7,251.48C1115.85,426.37,1003.45,537.51,866.47,537.05z M662.76,288.66
		c0.16,112.6,91.78,203.42,205.19,203.4c112.43-0.02,203.68-92.01,203.53-205.2c-0.15-112.09-92.05-203.56-204.46-203.53
		C753.83,83.37,662.6,175.08,662.76,288.66z"/>
	<path class="st0" d="M468.27,801c41.75,0,82.07,0,123.35,0c0.17,3.18,0.47,6.22,0.47,9.26c0.04,22.51,0.17,45.02-0.09,67.53
		c-0.08,6.9,2.19,9.53,9.43,9.9c49,2.51,97.96,5.82,145.9,17.04c12.79,2.99,25.34,7.71,37.35,13.08c9.48,4.24,9.58,10.48-0.2,14.1
		c-18.54,6.85-37.49,13.63-56.87,17.01c-85.95,14.98-172.78,17.32-259.67,13.02c-44.58-2.21-89.08-7.26-133.38-12.86
		c-18.35-2.32-36.22-9.05-54.04-14.64c-4.43-1.39-7.81-6.16-11.67-9.38c3.97-3.43,7.43-8.71,12-9.99
		c22.97-6.41,45.96-13.71,69.47-17.06c35.35-5.04,71.13-7.16,106.75-10.33c11.07-0.99,11.22-0.83,11.22-12.36
		c0-21.35-0.01-42.71-0.02-64.06C468.27,808.13,468.27,805,468.27,801z"/>
	<path class="st0" d="M470.01,607.49c0.15-0.85,0.33-1.7,0.45-2.56c2.65-19.49-0.85-24.15-20.23-26.88
		c-7.88-1.11-13.39-14.39-8.55-20.61c12.33-15.87,11.51-22.83-4.17-35.08c-5.87-4.59-4.06-19.37,2.78-22.55
		c1.57-0.73,3.19-1.34,4.76-2.05c13.71-6.19,16.99-13.94,11.18-27.7c-2.01-4.75-3.59-8.58,0.82-13.13
		c4.21-4.34,6.91-8.51,14.76-6.79c15.5,3.4,23.19-2.55,24.21-18.51c0.47-7.37,4.71-8.67,9.7-11.02c5.1-2.4,8.67-1.74,13.05,2.03
		c12.29,10.58,21.79,9.7,31.24-3.61c4.37-6.17,9.14-5.52,14.9-4.89c5.57,0.61,9.01,2.52,11.09,8.6
		c5.38,15.77,14.02,19.33,29.54,12.34c5.68-2.56,8.96-0.75,12.93,2.6c4.07,3.44,7.33,6.09,5.77,12.8
		c-3.66,15.74,1.6,22.66,17.44,25.25c12.38,2.03,17.05,13.48,9.41,23.07c-9.61,12.06-8.66,21.64,4.02,30.79
		c4.94,3.57,6.92,7.13,5.39,12.9c-1.42,5.32-0.92,10.66-8.65,13.05c-15.85,4.9-19.8,14.44-12.8,29.34
		c2.64,5.64,1.23,8.89-2.13,12.91c-3.59,4.3-6.34,7.7-13.47,5.95c-15.5-3.81-23.46,2.49-24.68,18.84c-0.43,5.73-2.94,8.27-7.69,9.78
		c-4.93,1.57-9.02,4.58-14.71-0.64c-12.59-11.55-22.25-10.1-32.44,3.91c-3.01,4.14-5.88,5.89-10.71,4.53
		c-5.16-1.46-11.12,0.13-13.89-7.52c-6.58-18.18-13-20.47-31.87-13.3C481.41,621.64,469.88,613.81,470.01,607.49z M613.25,527.37
		c0.18-36.55-29.08-66.28-65.41-66.47c-36.26-0.18-66.36,29.39-66.72,65.55c-0.36,36.04,29.4,66.07,65.78,66.36
		C583.52,593.12,613.07,563.97,613.25,527.37z"/>
	<path class="st0" d="M372.34,293.94c-4.08-6.88-6.88-12.44-10.45-17.46c-4.96-6.96,0.05-19.77,8.54-21
		c19.14-2.77,23.06-8.04,20.14-27.1c-1.19-7.81,9.75-16.76,17.1-13.98c19.14,7.25,24.24,5.03,32.42-14.08
		c3.11-7.26,18.09-9.32,23.11-3.17c12.94,15.87,18.86,16.8,34.97,3.91c5.12-4.1,8.92-1.21,12.51,0.72c3.24,1.74,7.22,5.22,7.72,8.43
		c2.97,19.01,7.61,22.78,27.16,20.17c8.54-1.14,17.09,9.87,13.87,17.86c-7.07,17.48-4.21,24.09,13.53,31.34
		c8.51,3.48,10.65,18.25,3.45,23.85c-14.83,11.53-16.2,19.9-4.05,33.76c4.54,5.18,1.84,8.87,0.22,13.24
		c-1.61,4.33-3.08,7.89-9.29,8.33c-17.54,1.23-23.22,8.52-19.49,25.67c1.54,7.08-2.62,9.16-6.37,12.45
		c-3.6,3.16-6.68,4.84-12.14,2.22c-15.32-7.36-24.95-3.51-30.12,12.63c-2.47,7.71-7.78,7.05-13.17,8.37
		c-5.46,1.33-8.78-0.2-12.23-4.9c-10.19-13.9-19.25-14.94-32.54-3.33c-4.98,4.35-8.58,2.56-13.14,0.77
		c-4.75-1.85-8.29-3.69-8.78-10.02c-1.34-17.29-8.76-22.83-26.05-19.01c-6.2,1.37-8.32-1.85-11.2-5.36
		c-3.08-3.76-5.95-6.81-3.21-12.88c7.42-16.44,3.87-24.62-12.95-30.72c-5.36-1.95-7.17-4.96-7.47-10.02
		c-0.33-5.5-2.69-10.72,4.11-15.16C363.87,306.02,367.37,299.74,372.34,293.94z M466.81,372.86c36.56,0.23,66.09-28.98,66.27-65.55
		c0.18-36.46-29.18-66.17-65.59-66.39c-36.32-0.22-66.17,29.37-66.29,65.71C401.09,343.22,430.22,372.63,466.81,372.86z"/>
	<path class="st0" d="M280.73,593.9c-9.21-0.36-15.55-6.27-16.97-14.65c-2.57-15.14-9.76-20.5-24.93-16.94
		c-6.48,1.52-9.48-1.09-13-5.34c-3.56-4.29-5.23-7.8-2.54-13.76c6.82-15.13,2.94-23.65-13.17-29.17c-5.77-1.98-7.54-5.41-8.03-10.56
		c-0.52-5.51-2.17-10.4,4.41-14.91c13.75-9.43,14.68-19.29,3.53-31.82c-4.5-5.06-3.17-8.94-1.24-13.89
		c1.86-4.75,3.63-8.05,9.99-8.55c16.73-1.32,22.56-9.3,18.88-25.55c-1.28-5.65,0.4-8.63,4.47-11.55c4.29-3.08,7.47-6.71,14.27-3.57
		c15.32,7.08,24.17,3.17,29.5-12.61c2.07-6.12,5.58-7.99,11.1-8.48c5.31-0.48,10-1.78,14.27,4.23
		c10.01,14.09,19.47,14.94,32.45,3.51c3.95-3.48,7.23-3.98,11.46-1.72c4.24,2.27,9.53,2.26,10.4,9.56
		c2.28,19.17,8.44,23.59,27.14,19.75c6.41-1.32,8.6,2.58,10.82,6.11c1.98,3.14,4.03,7.98,2.98,11.02
		c-6.55,19-4.34,24.48,14.71,32.41c7.36,3.07,9.51,17.95,3.32,22.96c-15.71,12.73-16.45,19.3-3.95,35.14
		c4.32,5.48-0.19,18.31-7.05,19.93c-1.68,0.4-3.42,0.55-5.12,0.86c-14.74,2.69-20.25,9.88-16.82,24.28
		c1.59,6.68-0.65,9.97-5.31,13.71c-4.42,3.54-7.97,4.98-13.82,2.32c-14.7-6.67-22.83-2.75-28.9,12.65
		c-4.29,10.9-18.16,12.96-25.52,3.8c-10.49-13.05-19.09-13.87-32.24-3.12C283.9,591.53,281.91,593,280.73,593.9z M314.64,551.16
		c36.65-0.01,66.08-29.31,66.05-65.77c-0.02-36.56-29.48-66.15-65.83-66.13c-36.49,0.02-66.14,29.59-66.08,65.89
		C248.84,521.78,278.17,551.17,314.64,551.16z"/>
	<path class="st0" d="M904.86,747c0,4.08,0,7.73,0,12c-10.67,0-21.11,0-32,0c0-4.1,0-7.77,0-12C883.55,747,893.97,747,904.86,747z"
		/>
	<path class="st0" d="M850.83,308.42c-7.01-7.12-12.65-12.85-18.68-18.97c-1.84,1.73-3.48,3.21-5.04,4.76
		c-11.24,11.17-18.42,11.35-29.74,0.11c-25.19-25.01-50.28-50.13-75.32-75.3c-9.89-9.94-10.5-18.08-1.22-28.74
		c6.79-7.79,14.21-15.21,22.24-21.68c9.74-7.84,17.18-6.98,26.03,1.81c25.81,25.63,51.53,51.33,77.17,77.13
		c9.18,9.24,9.16,18.5,0.05,27.27c-2.04,1.96-5.08,2.89-7.66,4.29c0.74,0.84,1.49,1.67,2.23,2.51c0.71,0.89,1.35,1.84,2.13,2.67
		c4.74,5.04,9.51,10.05,15.22,16.08c8.6-8.84,16.56-17.1,24.6-25.28c6.07-6.17,11.89-12.67,18.46-18.26
		c10.33-8.8,14.83-17.36,12.36-32.79c-5.76-35.92,30.19-64.34,68.03-54.43c-7.85,7.98-14.74,15.87-22.57,22.67
		c-5.56,4.83-6.96,9.75-5.22,16.59c1.84,7.25,2.49,14.83,4.58,21.99c0.74,2.54,4.21,4.29,6.45,6.37c0.17,0.16,0.56,0.08,0.84,0.13
		c9.93,1.68,20.9,6.73,29.51,4.09c8.59-2.64,14.86-12.94,22.06-19.97c2.44-2.39,4.62-5.05,8.14-8.94
		c4.73,16.24,3.71,29.97-3.8,42.97c-12.18,21.07-35.78,31.08-60.15,24.93c-6.02-1.52-9.43-0.2-13.46,3.88
		c-17.22,17.44-34.73,34.59-54.19,53.9c6.71,5.76,13.01,10.74,18.82,16.24c18.22,17.25,36.47,34.49,54.19,52.25
		c3.46,3.47,4.56,9.29,7.24,15.07c-9.21,0.58-14.59-1.76-19.77-7.37c-21.51-23.28-43.55-46.06-67.55-71.3
		c-3.49,4.51-5.92,8.42-9.08,11.6c-24.39,24.58-48.91,49.05-73.42,73.51c-7.64,7.62-24.23,6.6-32.74,0.23
		c-10.56-7.9-10.84-18.18-9.68-29.2c0.29-2.73,2.58-5.62,4.67-7.73c25.41-25.61,50.94-51.09,76.5-76.56
		C845.3,312.7,847.91,310.85,850.83,308.42z M822.64,384.64c1.91-1.44,5.57-3.6,8.5-6.5c18.01-17.84,35.85-35.86,53.76-53.8
		c12.83-12.84,25.7-25.64,38.54-38.47c4.74-4.73,6.19-10.16,1.06-15.15c-5.01-4.87-10.45-3.72-15.18,1.15
		c-0.8,0.83-1.67,1.59-2.49,2.4c-29.33,29.34-58.67,58.67-87.98,88.04c-2.43,2.44-5.12,4.81-6.9,7.69
		C807.93,376.53,812.86,384.76,822.64,384.64z M803.44,407.26c0.07-9.35-6.01-15.6-15.17-15.6c-9.27,0-15.71,6.11-15.83,15.03
		c-0.13,9.35,5.96,15.9,14.86,15.99C797.36,422.79,803.37,417.05,803.44,407.26z"/>
</g>
</svg>
